<svg data-v-423bf9ae="" xmlns="http://www.w3.org/2000/svg" viewBox="0 0 192.71860625762622 60" class="font"><!----><!----><defs data-v-423bf9ae=""><linearGradient data-v-423bf9ae="" gradientTransform="rotate(25)" id="677bb54e-1c65-442d-aa53-a8ab434bc407" x1="0%" y1="0%" x2="100%" y2="0%"><stop data-v-423bf9ae="" offset="0%" style="stop-color: rgb(1, 100, 139); stop-opacity: 1;"></stop><stop data-v-423bf9ae="" offset="100%" style="stop-color: rgb(91, 208, 164); stop-opacity: 1;"></stop></linearGradient></defs><g data-v-423bf9ae="" id="dbc89b0f-a601-425d-b04a-70239cfbb595" fill="url(#677bb54e-1c65-442d-aa53-a8ab434bc407)" transform="matrix(5.703421805055199,0,0,5.703421805055199,-1.2547565276181416,0.5703425689838895)"><path d="M7.08 10.08C6.59 9.95 6.51 9.55 6.51 8.78L6.51 5.91C6.51 4.23 5.80 3.70 4.66 3.70C3.77 3.70 2.66 4.48 2.41 5.25L2.41-0.10L0.22 0.41L0.22 0.62C0.80 0.77 0.92 0.92 0.92 1.41L0.92 8.78C0.92 9.49 0.90 9.91 0.36 10.07L0.36 10.29L2.98 10.29L2.98 10.07C2.48 9.94 2.41 9.55 2.41 8.78L2.41 5.56C2.67 5.04 3.18 4.58 3.71 4.58C4.61 4.58 5.03 5.05 5.03 5.96L5.03 8.78C5.03 9.49 5.00 9.93 4.47 10.08L4.47 10.29L7.08 10.29L7.08 10.08ZM12.70 7.06C12.70 9.59 12.22 10.21 11.17 10.21C10.14 10.21 9.65 9.59 9.65 7.06C9.65 4.52 10.14 3.91 11.17 3.91C12.22 3.91 12.70 4.52 12.70 7.06ZM14.46 7.06C14.46 5.21 13.31 3.70 11.17 3.70C9.04 3.70 7.90 5.21 7.90 7.06C7.90 8.89 9.04 10.42 11.17 10.42C13.31 10.42 14.46 8.89 14.46 7.06ZM20.01 9.69C20.69 8.71 20.29 7.53 19.03 6.75L17.61 5.87C16.39 5.10 16.65 3.91 17.77 3.91C19.29 3.91 19.71 5.11 19.85 5.77L20.06 5.77L20.06 4.13C20.06 4.13 19.38 3.70 17.77 3.70C16.35 3.70 15.88 4.45 15.88 4.45C15.20 5.43 15.54 6.41 16.90 7.28L18.31 8.13C19.38 8.83 19.38 10.21 18.14 10.21C16.41 10.21 16.02 8.72 15.86 7.98L15.65 7.98L15.65 9.81C15.65 9.81 16.45 10.42 18.14 10.42C19.50 10.42 20.01 9.69 20.01 9.69ZM26.10 9.69C26.78 8.71 26.38 7.53 25.12 6.75L23.70 5.87C22.48 5.10 22.74 3.91 23.86 3.91C25.38 3.91 25.80 5.11 25.94 5.77L26.15 5.77L26.15 4.13C26.15 4.13 25.47 3.70 23.86 3.70C22.44 3.70 21.97 4.45 21.97 4.45C21.29 5.43 21.63 6.41 22.99 7.28L24.40 8.13C25.47 8.83 25.47 10.21 24.23 10.21C22.50 10.21 22.11 8.72 21.95 7.98L21.74 7.98L21.74 9.81C21.74 9.81 22.54 10.42 24.23 10.42C25.59 10.42 26.10 9.69 26.10 9.69ZM28.87 2.55C29.33 2.55 29.72 2.18 29.72 1.72C29.72 1.26 29.33 0.88 28.87 0.88C28.41 0.88 28.04 1.26 28.04 1.72C28.04 2.18 28.41 2.55 28.87 2.55ZM30.32 10.08C29.82 9.94 29.75 9.56 29.75 8.79L29.75 3.70L27.57 4.17L27.57 4.38C28.14 4.62 28.28 4.82 28.28 5.29L28.28 8.79C28.28 9.51 28.25 9.91 27.72 10.08L27.72 10.29L30.32 10.29ZM32.55 2.55C33.01 2.55 33.40 2.18 33.40 1.72C33.40 1.26 33.01 0.88 32.55 0.88C32.09 0.88 31.72 1.26 31.72 1.72C31.72 2.18 32.09 2.55 32.55 2.55ZM34.01 10.08C33.50 9.94 33.43 9.56 33.43 8.79L33.43 3.70L31.25 4.17L31.25 4.38C31.82 4.62 31.96 4.82 31.96 5.29L31.96 8.79C31.96 9.51 31.93 9.91 31.40 10.08L31.40 10.29L34.01 10.29Z"></path></g><!----><!----></svg>