<svg data-v-423bf9ae="" xmlns="http://www.w3.org/2000/svg" viewBox="0 0 348 90" class="iconLeftSlogan"><!----><!----><!----><g data-v-423bf9ae="" id="fd5a0b77-3da9-4bef-a0c7-e4d9ab4d4a18" fill="black" transform="matrix(5.9055118997155125,0,0,5.9055118997155125,109.92497770547855,-42.165353698660695)"><path d="M8.03 11.31L8.03 7.55L9.84 7.14L9.98 7.27L9.98 7.27Q9.75 9.41 9.75 12.11L9.75 12.11L9.75 12.11Q9.75 12.76 9.73 13.80L9.73 13.80L9.73 13.80Q9.73 14.64 9.73 15.18L9.73 15.18L9.73 15.18Q9.73 15.72 9.85 16.03L9.85 16.03L9.85 16.03Q9.98 16.35 10.23 16.48L10.23 16.48L10.23 16.48Q10.48 16.61 10.98 16.64L10.98 16.64L10.98 16.98L10.89 17.19L8.15 17.19L7.83 16.89L7.83 16.89Q8.03 14.88 8.03 12.72L8.03 12.72L8.03 12.72Q8.03 12.49 7.89 12.42L7.89 12.42L7.89 12.42Q7.76 12.35 7.52 12.35L7.52 12.35L3.49 12.35L3.49 12.35Q3.08 12.35 3.08 12.74L3.08 12.74L3.08 12.74Q3.08 14.72 3.17 16.67L3.17 16.67L1.42 17.17L1.42 17.17Q1.40 17.16 1.38 17.13L1.38 17.13L1.38 17.13Q1.35 17.10 1.34 17.08L1.34 17.08L1.34 17.08Q1.32 17.06 1.32 17.05L1.32 17.05L1.32 17.05Q1.39 15.38 1.39 12.07L1.39 12.07L1.39 8.52L1.39 8.52Q1.39 8.36 1.25 8.23L1.25 8.23L1.25 8.23Q1.11 8.10 0.85 8.01L0.85 8.01L0.85 8.01Q0.59 7.92 0.43 7.88L0.43 7.88L0.43 7.88Q0.27 7.83 0 7.78L0 7.78L0 7.46L0.11 7.31L3.11 7.31L3.22 7.43L3.22 7.43Q3.07 10.36 3.07 11.31L3.07 11.31L3.07 11.31Q3.07 11.66 3.50 11.66L3.50 11.66L7.55 11.66L7.55 11.66Q7.72 11.66 7.82 11.63L7.82 11.63L7.82 11.63Q7.92 11.61 7.96 11.55L7.96 11.55L7.96 11.55Q8.00 11.49 8.02 11.45L8.02 11.45L8.02 11.45Q8.03 11.40 8.03 11.31L8.03 11.31ZM13.31 13.82L13.31 13.82L13.31 13.82Q13.31 14.13 13.35 14.48L13.35 14.48L13.35 14.48Q13.39 14.82 13.51 15.22L13.51 15.22L13.51 15.22Q13.62 15.63 13.80 15.94L13.80 15.94L13.80 15.94Q13.98 16.25 14.29 16.46L14.29 16.46L14.29 16.46Q14.60 16.67 14.99 16.67L14.99 16.67L14.99 16.67Q15.37 16.67 15.66 16.56L15.66 16.56L15.66 16.56Q15.95 16.45 16.14 16.29L16.14 16.29L16.14 16.29Q16.34 16.13 16.47 15.85L16.47 15.85L16.47 15.85Q16.61 15.57 16.68 15.31L16.68 15.31L16.68 15.31Q16.75 15.06 16.80 14.68L16.80 14.68L16.80 14.68Q16.84 14.29 16.84 14.02L16.84 14.02L16.84 14.02Q16.85 13.75 16.85 13.34L16.85 13.34L16.85 13.34Q16.85 12.86 16.77 12.44L16.77 12.44L16.77 12.44Q16.69 12.02 16.50 11.65L16.50 11.65L16.50 11.65Q16.32 11.28 15.97 11.06L15.97 11.06L15.97 11.06Q15.63 10.85 15.16 10.85L15.16 10.85L15.16 10.85Q14.73 10.85 14.40 11.04L14.40 11.04L14.40 11.04Q14.07 11.24 13.87 11.54L13.87 11.54L13.87 11.54Q13.67 11.84 13.54 12.25L13.54 12.25L13.54 12.25Q13.41 12.65 13.36 13.04L13.36 13.04L13.36 13.04Q13.31 13.42 13.31 13.82ZM11.50 13.83L11.50 13.83L11.50 13.83Q11.50 12.30 12.56 11.29L12.56 11.29L12.56 11.29Q13.61 10.29 15.24 10.29L15.24 10.29L15.24 10.29Q16.86 10.29 17.72 11.05L17.72 11.05L17.72 11.05Q18.66 11.91 18.66 13.25L18.66 13.25L18.66 13.25Q18.66 14.10 18.46 14.77L18.46 14.77L18.46 14.77Q18.26 15.45 17.92 15.91L17.92 15.91L17.92 15.91Q17.58 16.37 17.09 16.67L17.09 16.67L17.09 16.67Q16.61 16.97 16.06 17.11L16.06 17.11L16.06 17.11Q15.51 17.25 14.88 17.25L14.88 17.25L14.88 17.25Q13.25 17.25 12.51 16.57L12.51 16.57L12.51 16.57Q11.50 15.66 11.50 13.83ZM24.75 11.13L24.75 11.13L23.73 12.16L23.52 12.11L23.52 12.11Q23.48 11.85 23.39 11.61L23.39 11.61L23.39 11.61Q23.30 11.37 23.14 11.16L23.14 11.16L23.14 11.16Q22.98 10.94 22.72 10.82L22.72 10.82L22.72 10.82Q22.47 10.69 22.16 10.69L22.16 10.69L22.16 10.69Q21.70 10.69 21.47 10.96L21.47 10.96L21.47 10.96Q21.24 11.22 21.24 11.70L21.24 11.70L21.24 11.70Q21.24 11.87 21.30 12.03L21.30 12.03L21.30 12.03Q21.37 12.20 21.45 12.32L21.45 12.32L21.45 12.32Q21.54 12.44 21.71 12.57L21.71 12.57L21.71 12.57Q21.88 12.71 21.99 12.79L21.99 12.79L21.99 12.79Q22.11 12.87 22.34 12.98L22.34 12.98L22.34 12.98Q22.56 13.10 22.66 13.15L22.66 13.15L22.66 13.15Q22.76 13.19 22.99 13.30L22.99 13.30L22.99 13.30Q23.53 13.54 23.83 13.71L23.83 13.71L23.83 13.71Q24.13 13.88 24.39 14.10L24.39 14.10L24.39 14.10Q24.64 14.31 24.74 14.56L24.74 14.56L24.74 14.56Q24.84 14.81 24.84 15.16L24.84 15.16L24.84 15.16Q24.84 15.68 24.56 16.11L24.56 16.11L24.56 16.11Q24.29 16.53 23.84 16.78L23.84 16.78L23.84 16.78Q23.39 17.04 22.86 17.17L22.86 17.17L22.86 17.17Q22.34 17.30 21.80 17.30L21.80 17.30L21.80 17.30Q20.23 17.30 19.38 16.37L19.38 16.37L20.26 15.05L20.47 15.06L20.47 15.06Q20.57 15.42 20.68 15.67L20.68 15.67L20.68 15.67Q20.78 15.93 20.97 16.21L20.97 16.21L20.97 16.21Q21.15 16.49 21.44 16.64L21.44 16.64L21.44 16.64Q21.72 16.78 22.11 16.78L22.11 16.78L22.11 16.78Q22.59 16.78 22.93 16.50L22.93 16.50L22.93 16.50Q23.27 16.21 23.27 15.76L23.27 15.76L23.27 15.76Q23.27 15.42 22.95 15.11L22.95 15.11L22.95 15.11Q22.79 14.97 22.48 14.80L22.48 14.80L22.48 14.80Q22.16 14.63 21.84 14.48L21.84 14.48L21.84 14.48Q21.51 14.33 21.15 14.13L21.15 14.13L21.15 14.13Q20.79 13.92 20.52 13.70L20.52 13.70L20.52 13.70Q20.25 13.47 20.07 13.15L20.07 13.15L20.07 13.15Q19.89 12.82 19.89 12.46L19.89 12.46L19.89 12.46Q19.89 11.88 20.11 11.43L20.11 11.43L20.11 11.43Q20.34 10.98 20.74 10.71L20.74 10.71L20.74 10.71Q21.13 10.45 21.62 10.31L21.62 10.31L21.62 10.31Q22.11 10.17 22.67 10.17L22.67 10.17L22.67 10.17Q23.41 10.17 23.94 10.37L23.94 10.37L23.94 10.37Q24.48 10.58 24.75 11.13ZM30.81 11.13L30.81 11.13L29.79 12.16L29.58 12.11L29.58 12.11Q29.54 11.85 29.45 11.61L29.45 11.61L29.45 11.61Q29.35 11.37 29.19 11.16L29.19 11.16L29.19 11.16Q29.03 10.94 28.78 10.82L28.78 10.82L28.78 10.82Q28.53 10.69 28.21 10.69L28.21 10.69L28.21 10.69Q27.75 10.69 27.52 10.96L27.52 10.96L27.52 10.96Q27.30 11.22 27.30 11.70L27.30 11.70L27.30 11.70Q27.30 11.87 27.36 12.03L27.36 12.03L27.36 12.03Q27.43 12.20 27.51 12.32L27.51 12.32L27.51 12.32Q27.60 12.44 27.76 12.57L27.76 12.57L27.76 12.57Q27.93 12.71 28.05 12.79L28.05 12.79L28.05 12.79Q28.17 12.87 28.39 12.98L28.39 12.98L28.39 12.98Q28.62 13.10 28.72 13.15L28.72 13.15L28.72 13.15Q28.82 13.19 29.05 13.30L29.05 13.30L29.05 13.30Q29.59 13.54 29.89 13.71L29.89 13.71L29.89 13.71Q30.19 13.88 30.44 14.10L30.44 14.10L30.44 14.10Q30.70 14.31 30.80 14.56L30.80 14.56L30.80 14.56Q30.90 14.81 30.90 15.16L30.90 15.16L30.90 15.16Q30.90 15.68 30.62 16.11L30.62 16.11L30.62 16.11Q30.34 16.53 29.89 16.78L29.89 16.78L29.89 16.78Q29.44 17.04 28.92 17.17L28.92 17.17L28.92 17.17Q28.40 17.30 27.86 17.30L27.86 17.30L27.86 17.30Q26.28 17.30 25.44 16.37L25.44 16.37L26.32 15.05L26.53 15.06L26.53 15.06Q26.63 15.42 26.73 15.67L26.73 15.67L26.73 15.67Q26.84 15.93 27.02 16.21L27.02 16.21L27.02 16.21Q27.21 16.49 27.49 16.64L27.49 16.64L27.49 16.64Q27.78 16.78 28.16 16.78L28.16 16.78L28.16 16.78Q28.64 16.78 28.98 16.50L28.98 16.50L28.98 16.50Q29.33 16.21 29.33 15.76L29.33 15.76L29.33 15.76Q29.33 15.42 29.00 15.11L29.00 15.11L29.00 15.11Q28.85 14.97 28.53 14.80L28.53 14.80L28.53 14.80Q28.22 14.63 27.89 14.48L27.89 14.48L27.89 14.48Q27.57 14.33 27.21 14.13L27.21 14.13L27.21 14.13Q26.85 13.92 26.58 13.70L26.58 13.70L26.58 13.70Q26.30 13.47 26.12 13.15L26.12 13.15L26.12 13.15Q25.94 12.82 25.94 12.46L25.94 12.46L25.94 12.46Q25.94 11.88 26.17 11.43L26.17 11.43L26.17 11.43Q26.40 10.98 26.79 10.71L26.79 10.71L26.79 10.71Q27.19 10.45 27.68 10.31L27.68 10.31L27.68 10.31Q28.17 10.17 28.72 10.17L28.72 10.17L28.72 10.17Q29.46 10.17 30.00 10.37L30.00 10.37L30.00 10.37Q30.54 10.58 30.81 11.13ZM32.83 9.05L32.83 9.05L32.83 9.05Q32.56 8.78 32.56 8.39L32.56 8.39L32.56 8.39Q32.56 8.01 32.83 7.74L32.83 7.74L32.83 7.74Q33.11 7.47 33.48 7.47L33.48 7.47L33.48 7.47Q33.86 7.47 34.13 7.74L34.13 7.74L34.13 7.74Q34.41 8.01 34.41 8.39L34.41 8.39L34.41 8.39Q34.41 8.78 34.13 9.05L34.13 9.05L34.13 9.05Q33.86 9.32 33.48 9.32L33.48 9.32L33.48 9.32Q33.11 9.32 32.83 9.05ZM35.79 15.42L35.79 15.42L36.03 15.65L36.03 15.80L36.03 15.80Q34.84 17.27 33.84 17.27L33.84 17.27L33.84 17.27Q33.29 17.27 33.00 16.88L33.00 16.88L33.00 16.88Q32.91 16.75 32.85 16.59L32.85 16.59L32.85 16.59Q32.80 16.43 32.77 16.28L32.77 16.28L32.77 16.28Q32.74 16.13 32.73 15.81L32.73 15.81L32.73 15.81Q32.72 15.50 32.72 15.26L32.72 15.26L32.72 15.26Q32.72 15.01 32.73 14.48L32.73 14.48L32.73 14.48Q32.74 13.95 32.74 13.54L32.74 13.54L32.74 11.89L32.74 11.89Q32.68 11.21 32.25 11.21L32.25 11.21L32.25 11.21Q31.90 11.21 31.28 11.66L31.28 11.66L31.06 11.35L31.06 11.35Q31.47 11.01 31.78 10.80L31.78 10.80L31.78 10.80Q32.08 10.59 32.54 10.39L32.54 10.39L32.54 10.39Q32.99 10.19 33.37 10.19L33.37 10.19L33.37 10.19Q33.88 10.19 34.07 10.51L34.07 10.51L34.07 10.51Q34.16 10.66 34.20 10.88L34.20 10.88L34.20 10.88Q34.23 11.10 34.23 11.68L34.23 11.68L34.23 11.68Q34.23 11.96 34.21 12.53L34.21 12.53L34.21 12.53Q34.19 13.10 34.19 13.38L34.19 13.38L34.19 13.38Q34.19 13.60 34.19 13.91L34.19 13.91L34.19 13.91Q34.19 14.23 34.18 14.41L34.18 14.41L34.18 14.41Q34.18 14.59 34.18 14.83L34.18 14.83L34.18 14.83Q34.19 15.07 34.20 15.21L34.20 15.21L34.20 15.21Q34.21 15.35 34.24 15.52L34.24 15.52L34.24 15.52Q34.26 15.68 34.31 15.77L34.31 15.77L34.31 15.77Q34.35 15.85 34.42 15.93L34.42 15.93L34.42 15.93Q34.49 16.02 34.58 16.05L34.58 16.05L34.58 16.05Q34.67 16.08 34.79 16.08L34.79 16.08L34.79 16.08Q34.95 16.08 35.15 15.96L35.15 15.96L35.15 15.96Q35.36 15.84 35.48 15.73L35.48 15.73L35.48 15.73Q35.59 15.62 35.79 15.42ZM36.99 9.05L36.99 9.05L36.99 9.05Q36.72 8.78 36.72 8.39L36.72 8.39L36.72 8.39Q36.72 8.01 36.99 7.74L36.99 7.74L36.99 7.74Q37.26 7.47 37.64 7.47L37.64 7.47L37.64 7.47Q38.01 7.47 38.29 7.74L38.29 7.74L38.29 7.74Q38.56 8.01 38.56 8.39L38.56 8.39L38.56 8.39Q38.56 8.78 38.29 9.05L38.29 9.05L38.29 9.05Q38.01 9.32 37.64 9.32L37.64 9.32L37.64 9.32Q37.26 9.32 36.99 9.05ZM39.95 15.42L39.95 15.42L40.19 15.65L40.19 15.80L40.19 15.80Q38.99 17.27 38.00 17.27L38.00 17.27L38.00 17.27Q37.45 17.27 37.16 16.88L37.16 16.88L37.16 16.88Q37.06 16.75 37.01 16.59L37.01 16.59L37.01 16.59Q36.96 16.43 36.92 16.28L36.92 16.28L36.92 16.28Q36.89 16.13 36.89 15.81L36.89 15.81L36.89 15.81Q36.88 15.50 36.88 15.26L36.88 15.26L36.88 15.26Q36.88 15.01 36.89 14.48L36.89 14.48L36.89 14.48Q36.89 13.95 36.89 13.54L36.89 13.54L36.89 11.89L36.89 11.89Q36.83 11.21 36.41 11.21L36.41 11.21L36.41 11.21Q36.06 11.21 35.44 11.66L35.44 11.66L35.22 11.35L35.22 11.35Q35.63 11.01 35.93 10.80L35.93 10.80L35.93 10.80Q36.24 10.59 36.69 10.39L36.69 10.39L36.69 10.39Q37.15 10.19 37.52 10.19L37.52 10.19L37.52 10.19Q38.04 10.19 38.23 10.51L38.23 10.51L38.23 10.51Q38.32 10.66 38.35 10.88L38.35 10.88L38.35 10.88Q38.39 11.10 38.39 11.68L38.39 11.68L38.39 11.68Q38.39 11.96 38.37 12.53L38.37 12.53L38.37 12.53Q38.35 13.10 38.35 13.38L38.35 13.38L38.35 13.38Q38.35 13.60 38.35 13.91L38.35 13.91L38.35 13.91Q38.34 14.23 38.34 14.41L38.34 14.41L38.34 14.41Q38.34 14.59 38.34 14.83L38.34 14.83L38.34 14.83Q38.34 15.07 38.36 15.21L38.36 15.21L38.36 15.21Q38.37 15.35 38.39 15.52L38.39 15.52L38.39 15.52Q38.42 15.68 38.46 15.77L38.46 15.77L38.46 15.77Q38.51 15.85 38.58 15.93L38.58 15.93L38.58 15.93Q38.64 16.02 38.74 16.05L38.74 16.05L38.74 16.05Q38.83 16.08 38.95 16.08L38.95 16.08L38.95 16.08Q39.11 16.08 39.31 15.96L39.31 15.96L39.31 15.96Q39.51 15.84 39.63 15.73L39.63 15.73L39.63 15.73Q39.75 15.62 39.95 15.42Z"></path></g><!----><g data-v-423bf9ae="" id="27819790-146e-40ea-ab27-61725251941a" transform="matrix(1.4999996185303706,0,0,1.4999996185303706,0.02501373178907329,0)" stroke="none" fill="black"><g fill-rule="evenodd"><path d="M5 6a1 1 0 1 0 0-2 1 1 0 0 0 0 2M8 55a1 1 0 1 0 0 2 1 1 0 0 0 0-2M3 48a1 1 0 1 0 0 2 1 1 0 0 0 0-2M14 3a1 1 0 1 0 0-2 1 1 0 0 0 0 2M54 6a1 1 0 1 0 0-2 1 1 0 0 0 0 2M42.618 30a1 1 0 0 1 1-1h16.357a29.828 29.828 0 0 0-1.695-9H32.263a1 1 0 1 1 0-2h25.224a29.825 29.825 0 0 0-2.129-4H43a1 1 0 0 1 0-2h10.984C48.505 4.718 39.794 0 30 0 17.723 0 7.151 7.416 2.513 18h23.148a1 1 0 0 1 0 2H1.72a29.828 29.828 0 0 0-1.695 9h9.712a1 1 0 1 1 0 2H.025a29.8 29.8 0 0 0 2.073 10h21.845a1 1 0 0 1 0 2H2.966a30.162 30.162 0 0 0 6.666 9h24.174a1 1 0 0 1 0 2H12.021A29.84 29.84 0 0 0 30 60a29.84 29.84 0 0 0 17.979-6h-7.776a1 1 0 0 1 0-2h10.165a30.162 30.162 0 0 0 6.666-9h-26.86a1 1 0 0 1 0-2h27.728a29.8 29.8 0 0 0 2.073-10H43.618a1 1 0 0 1-1-1zM34.567 6H42.9a1 1 0 1 1 0 2h-8.333a1 1 0 0 1 0-2zM16.206 7a1 1 0 0 1 1-1h10.417a1 1 0 0 1 0 2H17.206a1 1 0 0 1-1-1zM24 14a1 1 0 0 1 0-2h10a1 1 0 0 1 0 2H24zm1 9h10a1 1 0 0 1 0 2H25a1 1 0 0 1 0-2zM6 25a1 1 0 0 1 0-2h10a1 1 0 0 1 0 2H6zm9.349 5a1 1 0 0 1 1-1h20.277a1 1 0 0 1 0 2H16.349a1 1 0 0 1-1-1zm21.928 16a1 1 0 0 1 0 2H17a1 1 0 0 1 0-2h20.277zM44 36a1 1 0 0 1-1 1H22.723a1 1 0 0 1 0-2H43a1 1 0 0 1 1 1z"></path></g></g><!----><g data-v-423bf9ae="" id="31d6d847-3c55-45bb-982a-c58168ce8dff" fill="black" transform="matrix(0.40219876206774097,0,0,0.40219876206774097,109.84051165553336,57.71551241266341)"><path d="M7.10 15.68L6.38 13.24L2.18 13.24L1.47 15.68L0.21 15.68L3.18 5.88L5.39 5.88L8.36 15.68L7.10 15.68ZM4.37 6.38L4.20 6.38L2.51 12.15L6.06 12.15L4.37 6.38ZM16.79 15.68L16.79 5.88L17.96 5.88L17.96 14.59L23.09 14.59L23.09 15.68L16.79 15.68ZM32.35 15.68L32.35 5.88L33.53 5.88L33.53 14.59L38.65 14.59L38.65 15.68L32.35 15.68ZM63.45 6.97L63.45 5.88L69.66 5.88L69.66 6.97L67.14 6.97L67.14 14.59L69.66 14.59L69.66 15.68L63.45 15.68L63.45 14.59L65.97 14.59L65.97 6.97L63.45 6.97ZM81.21 5.88L84.04 15.18L84.21 15.18L84.21 5.88L85.39 5.88L85.39 15.68L83.03 15.68L80.21 6.38L80.04 6.38L80.04 15.68L78.86 15.68L78.86 5.88L81.21 5.88ZM109.82 11.87L109.82 9.69L109.82 9.69Q109.82 7.78 110.73 6.73L110.73 6.73L110.73 6.73Q111.64 5.68 113.26 5.68L113.26 5.68L113.26 5.68Q114.88 5.68 115.79 6.73L115.79 6.73L115.79 6.73Q116.70 7.78 116.70 9.69L116.70 9.69L116.70 11.87L116.70 11.87Q116.70 13.83 115.79 14.85L115.79 14.85L115.79 14.85Q114.88 15.88 113.26 15.88L113.26 15.88L113.26 15.88Q111.64 15.88 110.73 14.85L110.73 14.85L110.73 14.85Q109.82 13.83 109.82 11.87L109.82 11.87ZM113.26 14.78L113.26 14.78L113.26 14.78Q114.39 14.78 114.96 14.01L114.96 14.01L114.96 14.01Q115.53 13.23 115.53 11.79L115.53 11.79L115.53 9.77L115.53 9.77Q115.53 8.43 114.96 7.60L114.96 7.60L114.96 7.60Q114.39 6.78 113.26 6.78L113.26 6.78L113.26 6.78Q112.13 6.78 111.56 7.60L111.56 7.60L111.56 7.60Q110.99 8.43 110.99 9.77L110.99 9.77L110.99 11.79L110.99 11.79Q110.99 13.23 111.56 14.01L111.56 14.01L111.56 14.01Q112.13 14.78 113.26 14.78ZM127.92 5.88L130.75 15.18L130.91 15.18L130.91 5.88L132.09 5.88L132.09 15.68L129.74 15.68L126.91 6.38L126.74 6.38L126.74 15.68L125.57 15.68L125.57 5.88L127.92 5.88ZM141.43 15.68L141.43 5.88L147.36 5.88L147.36 6.97L142.60 6.97L142.60 10.22L147.28 10.22L147.28 11.31L142.60 11.31L142.60 14.59L147.45 14.59L147.45 15.68L141.43 15.68ZM158.98 14.90L158.98 14.90L158.98 14.90Q158.98 14.49 159.27 14.20L159.27 14.20L159.27 14.20Q159.56 13.92 159.96 13.92L159.96 13.92L159.96 13.92Q160.37 13.92 160.66 14.20L160.66 14.20L160.66 14.20Q160.94 14.49 160.94 14.90L160.94 14.90L160.94 16.27L160.94 16.27Q160.94 16.74 160.64 17.05L160.64 17.05L160.64 17.05Q160.34 17.36 159.87 17.36L159.87 17.36L159.15 17.36L159.15 16.60L159.81 16.60L159.81 16.60Q160.19 16.60 160.19 16.18L160.19 16.18L160.19 15.83L160.19 15.83Q160.08 15.88 159.95 15.88L159.95 15.88L159.95 15.88Q159.56 15.88 159.27 15.59L159.27 15.59L159.27 15.59Q158.98 15.30 158.98 14.90ZM187.99 6.97L187.99 5.88L194.21 5.88L194.21 6.97L191.69 6.97L191.69 14.59L194.21 14.59L194.21 15.68L187.99 15.68L187.99 14.59L190.51 14.59L190.51 6.97L187.99 6.97ZM203.22 6.97L203.22 5.88L210.11 5.88L210.11 6.97L207.26 6.97L207.26 15.68L206.08 15.68L206.08 6.97L203.22 6.97ZM221.26 6.66L221.26 6.66L221.26 6.66Q221.26 6.26 221.54 5.97L221.54 5.97L221.54 5.97Q221.83 5.68 222.24 5.68L222.24 5.68L222.24 5.68Q222.64 5.68 222.93 5.97L222.93 5.97L222.93 5.97Q223.22 6.26 223.22 6.66L223.22 6.66L223.22 6.66Q223.22 6.97 223.05 7.22L223.05 7.22L223.05 7.22Q222.88 7.46 222.61 7.57L222.61 7.57L222.61 9.13L221.86 9.13L221.86 7.57L221.86 7.57Q221.59 7.46 221.42 7.22L221.42 7.22L221.42 7.22Q221.26 6.97 221.26 6.66ZM240.11 9.21L240.11 8.71L240.11 8.71Q240.11 8.23 239.93 7.87L239.93 7.87L239.93 7.87Q239.74 7.50 239.41 7.27L239.41 7.27L239.41 7.27Q239.09 7.03 238.67 6.90L238.67 6.90L238.67 6.90Q238.25 6.78 237.79 6.78L237.79 6.78L237.79 6.78Q237.38 6.78 237.02 6.88L237.02 6.88L237.02 6.88Q236.66 6.99 236.37 7.18L236.37 7.18L236.37 7.18Q236.08 7.38 235.91 7.66L235.91 7.66L235.91 7.66Q235.75 7.95 235.75 8.33L235.75 8.33L235.75 8.41L235.75 8.41Q235.75 8.82 235.91 9.11L235.91 9.11L235.91 9.11Q236.08 9.39 236.41 9.60L236.41 9.60L236.41 9.60Q236.74 9.80 237.23 9.93L237.23 9.93L237.23 9.93Q237.72 10.07 238.38 10.16L238.38 10.16L238.38 10.16Q239.92 10.40 240.65 11.07L240.65 11.07L240.65 11.07Q241.37 11.73 241.37 12.85L241.37 12.85L241.37 13.02L241.37 13.02Q241.37 13.65 241.16 14.17L241.16 14.17L241.16 14.17Q240.94 14.70 240.51 15.08L240.51 15.08L240.51 15.08Q240.09 15.46 239.46 15.67L239.46 15.67L239.46 15.67Q238.83 15.88 238.00 15.88L238.00 15.88L238.00 15.88Q237.06 15.88 236.34 15.60L236.34 15.60L236.34 15.60Q235.62 15.33 235.14 14.85L235.14 14.85L235.14 14.85Q234.65 14.36 234.40 13.71L234.40 13.71L234.40 13.71Q234.15 13.06 234.15 12.29L234.15 12.29L234.15 11.87L235.33 11.87L235.33 12.21L235.33 12.21Q235.33 13.50 236.03 14.14L236.03 14.14L236.03 14.14Q236.74 14.78 238.00 14.78L238.00 14.78L238.00 14.78Q239.09 14.78 239.65 14.30L239.65 14.30L239.65 14.30Q240.20 13.82 240.20 13.02L240.20 13.02L240.20 12.94L240.20 12.94Q240.20 12.17 239.63 11.76L239.63 11.76L239.63 11.76Q239.06 11.35 237.79 11.17L237.79 11.17L237.79 11.17Q237.05 11.07 236.45 10.87L236.45 10.87L236.45 10.87Q235.86 10.67 235.44 10.34L235.44 10.34L235.44 10.34Q235.02 10.01 234.79 9.55L234.79 9.55L234.79 9.55Q234.57 9.09 234.57 8.46L234.57 8.46L234.57 8.29L234.57 8.29Q234.57 7.71 234.81 7.24L234.81 7.24L234.81 7.24Q235.05 6.76 235.47 6.41L235.47 6.41L235.47 6.41Q235.90 6.06 236.50 5.87L236.50 5.87L236.50 5.87Q237.09 5.68 237.80 5.68L237.80 5.68L237.80 5.68Q238.63 5.68 239.28 5.92L239.28 5.92L239.28 5.92Q239.93 6.16 240.38 6.56L240.38 6.56L240.38 6.56Q240.83 6.96 241.06 7.50L241.06 7.50L241.06 7.50Q241.29 8.04 241.29 8.62L241.29 8.62L241.29 9.21L240.11 9.21ZM265.30 15.68L265.30 5.88L267.54 5.88L268.86 15.18L269.02 15.18L270.34 5.88L272.58 5.88L272.58 15.68L271.49 15.68L271.49 6.38L271.32 6.38L270.00 15.68L267.88 15.68L266.56 6.38L266.39 6.38L266.39 15.68L265.30 15.68ZM281.06 11.87L281.06 9.69L281.06 9.69Q281.06 7.78 281.97 6.73L281.97 6.73L281.97 6.73Q282.88 5.68 284.51 5.68L284.51 5.68L284.51 5.68Q286.13 5.68 287.04 6.73L287.04 6.73L287.04 6.73Q287.95 7.78 287.95 9.69L287.95 9.69L287.95 11.87L287.95 11.87Q287.95 13.83 287.04 14.85L287.04 14.85L287.04 14.85Q286.13 15.88 284.51 15.88L284.51 15.88L284.51 15.88Q282.88 15.88 281.97 14.85L281.97 14.85L281.97 14.85Q281.06 13.83 281.06 11.87L281.06 11.87ZM284.51 14.78L284.51 14.78L284.51 14.78Q285.64 14.78 286.21 14.01L286.21 14.01L286.21 14.01Q286.78 13.23 286.78 11.79L286.78 11.79L286.78 9.77L286.78 9.77Q286.78 8.43 286.21 7.60L286.21 7.60L286.21 7.60Q285.64 6.78 284.51 6.78L284.51 6.78L284.51 6.78Q283.37 6.78 282.81 7.60L282.81 7.60L282.81 7.60Q282.24 8.43 282.24 9.77L282.24 9.77L282.24 11.79L282.24 11.79Q282.24 13.23 282.81 14.01L282.81 14.01L282.81 14.01Q283.37 14.78 284.51 14.78ZM303.14 12.15L303.14 15.68L301.97 15.68L301.97 12.40L301.97 12.40Q301.97 12.04 301.80 11.84L301.80 11.84L301.80 11.84Q301.63 11.65 301.21 11.65L301.21 11.65L298.16 11.65L298.16 15.68L296.98 15.68L296.98 5.88L300.48 5.88L300.48 5.88Q301.24 5.88 301.80 6.10L301.80 6.10L301.80 6.10Q302.36 6.31 302.73 6.68L302.73 6.68L302.73 6.68Q303.10 7.04 303.29 7.53L303.29 7.53L303.29 7.53Q303.48 8.01 303.48 8.54L303.48 8.54L303.48 8.96L303.48 8.96Q303.48 9.51 303.18 10.05L303.18 10.05L303.18 10.05Q302.88 10.60 302.25 10.89L302.25 10.89L302.25 11.06L302.25 11.06Q302.67 11.13 302.90 11.40L302.90 11.40L302.90 11.40Q303.14 11.66 303.14 12.15L303.14 12.15ZM298.16 6.97L298.16 10.56L300.34 10.56L300.34 10.56Q301.34 10.56 301.82 10.13L301.82 10.13L301.82 10.13Q302.30 9.70 302.30 8.88L302.30 8.88L302.30 8.62L302.30 8.62Q302.30 7.88 301.82 7.43L301.82 7.43L301.82 7.43Q301.34 6.97 300.34 6.97L300.34 6.97L298.16 6.97ZM312.68 15.68L312.68 5.88L318.61 5.88L318.61 6.97L313.85 6.97L313.85 10.22L318.53 10.22L318.53 11.31L313.85 11.31L313.85 14.59L318.70 14.59L318.70 15.68L312.68 15.68ZM343.34 6.97L343.34 5.88L350.22 5.88L350.22 6.97L347.37 6.97L347.37 15.68L346.19 15.68L346.19 6.97L343.34 6.97ZM359.09 15.68L359.09 5.88L360.26 5.88L360.26 10.22L364.43 10.22L364.43 5.88L365.61 5.88L365.61 15.68L364.43 15.68L364.43 11.31L360.26 11.31L360.26 15.68L359.09 15.68ZM380.73 15.68L380.02 13.24L375.82 13.24L375.10 15.68L373.84 15.68L376.81 5.88L379.02 5.88L381.99 15.68L380.73 15.68ZM378.00 6.38L377.83 6.38L376.14 12.15L379.69 12.15L378.00 6.38ZM392.57 5.88L395.40 15.18L395.57 15.18L395.57 5.88L396.75 5.88L396.75 15.68L394.39 15.68L391.57 6.38L391.40 6.38L391.40 15.68L390.22 15.68L390.22 5.88L392.57 5.88ZM421.18 11.87L421.18 9.69L421.18 9.69Q421.18 7.78 422.09 6.73L422.09 6.73L422.09 6.73Q423.00 5.68 424.62 5.68L424.62 5.68L424.62 5.68Q426.24 5.68 427.15 6.73L427.15 6.73L427.15 6.73Q428.06 7.78 428.06 9.69L428.06 9.69L428.06 11.87L428.06 11.87Q428.06 13.83 427.15 14.85L427.15 14.85L427.15 14.85Q426.24 15.88 424.62 15.88L424.62 15.88L424.62 15.88Q423.00 15.88 422.09 14.85L422.09 14.85L422.09 14.85Q421.18 13.83 421.18 11.87L421.18 11.87ZM424.62 14.78L424.62 14.78L424.62 14.78Q425.75 14.78 426.32 14.01L426.32 14.01L426.32 14.01Q426.89 13.23 426.89 11.79L426.89 11.79L426.89 9.77L426.89 9.77Q426.89 8.43 426.32 7.60L426.32 7.60L426.32 7.60Q425.75 6.78 424.62 6.78L424.62 6.78L424.62 6.78Q423.49 6.78 422.92 7.60L422.92 7.60L422.92 7.60Q422.35 8.43 422.35 9.77L422.35 9.77L422.35 11.79L422.35 11.79Q422.35 13.23 422.92 14.01L422.92 14.01L422.92 14.01Q423.49 14.78 424.62 14.78ZM439.28 5.88L442.11 15.18L442.27 15.18L442.27 5.88L443.45 5.88L443.45 15.68L441.10 15.68L438.27 6.38L438.10 6.38L438.10 15.68L436.93 15.68L436.93 5.88L439.28 5.88ZM452.79 15.68L452.79 5.88L458.72 5.88L458.72 6.97L453.96 6.97L453.96 10.22L458.64 10.22L458.64 11.31L453.96 11.31L453.96 14.59L458.81 14.59L458.81 15.68L452.79 15.68ZM470.34 14.90L470.34 14.90L470.34 14.90Q470.34 14.49 470.63 14.20L470.63 14.20L470.63 14.20Q470.92 13.92 471.32 13.92L471.32 13.92L471.32 13.92Q471.73 13.92 472.02 14.20L472.02 14.20L472.02 14.20Q472.30 14.49 472.30 14.90L472.30 14.90L472.30 14.90Q472.30 15.30 472.02 15.59L472.02 15.59L472.02 15.59Q471.73 15.88 471.32 15.88L471.32 15.88L471.32 15.88Q470.92 15.88 470.63 15.59L470.63 15.59L470.63 15.59Q470.34 15.30 470.34 14.90ZM470.76 5.88L471.88 5.88L471.88 13.08L470.76 13.08L470.76 5.88Z"></path></g></svg>